<svg xmlns="http://www.w3.org/2000/svg" width="125" height="145" fill="none" viewBox="0 0 125 145">
    <path fill="#F0FAFB" fill-rule="evenodd" d="M68.328 28.713c-1.122 0-2.246-.431-3.104-1.293-1.716-1.722-1.716-4.517 0-6.24l6.789-6.824-6.79-6.824c-1.715-1.722-1.715-4.515 0-6.239 1.714-1.724 4.496-1.724 6.21 0l9.895 9.944c1.716 1.722 1.716 4.517 0 6.239l-9.896 9.944c-.855.862-1.98 1.293-3.104 1.293zM56.67 145c-1.125 0-2.25-.431-3.105-1.294l-9.893-9.94c-1.716-1.724-1.716-4.518 0-6.242l9.896-9.946c1.713-1.722 4.495-1.722 6.208 0 1.716 1.723 1.716 4.516 0 6.241l-6.789 6.825 6.787 6.823c1.716 1.724 1.716 4.515 0 6.239-.858.863-1.982 1.294-3.104 1.294zm5.905-101.724c-7.546 0-14.979 2.945-20.596 8.564-5.507 5.507-8.54 12.83-8.54 20.616 0 6.293 1.98 12.28 5.642 17.254l37.576-37.59c.821-.822 1.188-1.953 1.004-3.11-.1-.648-.474-1.84-1.81-2.523-4.22-2.16-8.77-3.211-13.276-3.211zm52.104 3.994c3.736.949 6.623 3.723 7.72 7.421 6.547 22.037.527 45.815-15.712 62.056-10.788 10.789-25.111 17.255-40.336 18.194-.093.007-.186.01-.277.01-2.32 0-4.268-1.81-4.414-4.156-.15-2.442 1.707-4.54 4.143-4.691 13.07-.807 25.366-6.353 34.623-15.618 13.942-13.94 19.111-34.354 13.489-53.275-.28-.942-1.006-1.256-1.413-1.359-.4-.1-1.174-.17-1.856.51l-10.568 10.564c1.784 11.91-2.13 23.9-10.715 32.49-13.752 13.757-35.504 14.722-50.403 2.933l-8.221 8.223c-2.328 2.328-5.463 3.618-8.723 3.618-.33 0-.662-.011-.994-.038-3.667-.296-7.011-2.188-9.177-5.192-17.991-24.97-15.236-58.911 6.552-80.707 10.795-10.796 25.12-17.257 40.338-18.193 2.416-.17 4.538 1.707 4.686 4.147.15 2.442-1.704 4.54-4.145 4.69-13.058.801-25.355 6.35-34.62 15.617-18.704 18.707-21.072 47.84-5.634 69.272.644.892 1.634 1.454 2.71 1.54.603.052 1.756-.02 2.75-1.013l8.286-8.29c-11.79-14.91-10.804-36.682 2.953-50.444 11.693-11.7 29.44-14.504 44.162-6.973 3.524 1.8 5.901 5.093 6.52 9.026.62 3.926-.684 7.942-3.49 10.746l-37.63 37.647c11.395 8.366 27.527 7.432 37.822-2.868 7.034-7.036 9.98-17.05 7.882-26.788-.316-1.47.135-3.002 1.197-4.065l12.205-12.203c2.716-2.717 6.561-3.776 10.29-2.831z" clip-rule="evenodd" opacity=".15"/>
</svg>
