<svg xmlns="http://www.w3.org/2000/svg" width="30" height="20" viewBox="0 0 30 20">
    <g fill="none">
        <path fill="#F5F5F5" d="M29.483 19.671H.517c-.285 0-.517-.231-.517-.517V.534C0 .247.232.015.517.015h28.966c.285 0 .517.232.517.517v18.621c0 .286-.232.517-.517.517z"/>
        <g fill="#FF4B55">
            <path d="M30 1.528H0V.533C0 .248.232.016.517.016h28.966c.285 0 .517.232.517.517v.995zM0 6.064H30V7.5760000000000005H0zM0 3.04H30V4.552H0zM30 10.6H.517c-.285 0-.517-.232-.517-.517v-.995h30V10.6zM0 15.136H30V16.648H0zM29.483 19.671H.517c-.285 0-.517-.231-.517-.517v-.995h30v.995c0 .286-.232.517-.517.517zM0 12.112H30V13.624H0z"/>
        </g>
        <path fill="#41479B" d="M13.448.016H.518C.231.016 0 .248 0 .533v9.55c0 .285.232.517.517.517h12.931c.286 0 .518-.232.518-.518V.533c0-.285-.232-.517-.518-.517z"/>
        <g fill="#F5F5F5">
            <path d="M.632.09l.115.343.362.003c.046 0 .066.06.028.088L.846.74l.11.345c.013.045-.037.082-.076.055L.586.929l-.294.21c-.039.027-.09-.01-.075-.055L.326.74.035.524C-.003.496.016.437.063.436L.425.434.54.09C.554.046.617.046.632.09zM.632 1.886l.115.344.362.002c.046 0 .066.06.028.088l-.291.215.11.345c.013.045-.037.082-.076.055l-.294-.21-.294.21c-.039.027-.09-.01-.075-.054l.109-.346-.291-.215c-.038-.027-.019-.087.028-.088l.362-.002.115-.344c.014-.044.077-.044.092 0zM.632 3.682l.115.344.362.002c.046 0 .066.06.028.089l-.291.215.11.345c.013.044-.037.081-.076.054l-.294-.21-.294.21c-.039.027-.09-.01-.075-.054l.109-.345-.291-.215c-.038-.028-.019-.088.028-.088l.362-.003.115-.344c.014-.044.077-.044.092 0zM.632 5.479l.115.343.362.003c.046 0 .066.06.028.088l-.291.215.11.345c.013.044-.037.081-.076.054l-.294-.21-.294.21c-.039.027-.09-.01-.075-.054l.109-.345-.291-.215c-.038-.028-.019-.088.028-.088l.362-.003.115-.343c.014-.045.077-.045.092 0zM.632 7.275l.115.343.362.003c.046 0 .066.06.028.088l-.291.215.11.345c.013.045-.037.082-.076.054l-.294-.21-.294.21c-.039.028-.09-.01-.075-.054l.109-.345-.291-.215C-.003 7.68.016 7.62.063 7.62l.362-.003.115-.343c.014-.045.077-.045.092 0zM2.026.97l.115.344.362.003c.047 0 .066.06.028.088l-.29.215.108.345c.015.045-.036.082-.075.054l-.294-.21-.294.21c-.039.028-.09-.01-.075-.054l.109-.345-.291-.215c-.038-.028-.018-.088.028-.088l.362-.003.115-.343c.015-.045.077-.045.092 0zM2.026 2.767l.115.343.362.003c.047 0 .066.06.028.088l-.29.215.108.345c.015.045-.036.082-.075.055l-.294-.211-.294.21c-.039.028-.09-.01-.075-.054l.109-.345-.291-.215c-.038-.028-.018-.088.028-.088l.362-.003.115-.343c.015-.045.077-.045.092 0zM2.026 4.563l.115.343.362.003c.047 0 .066.06.028.088l-.29.215.108.345c.015.045-.036.082-.075.055l-.294-.21-.294.21c-.039.027-.09-.01-.075-.055l.109-.345-.291-.215c-.038-.028-.018-.087.028-.088l.362-.003.115-.343c.015-.044.077-.044.092 0zM2.026 6.36l.115.343.362.002c.047 0 .066.06.028.088l-.29.215.108.345c.015.045-.036.082-.075.055l-.294-.21-.294.21c-.039.027-.09-.01-.075-.055l.109-.345-.291-.215c-.038-.028-.018-.087.028-.088l.362-.002.115-.344c.015-.044.077-.044.092 0zM3.42.09l.115.343.362.003c.047 0 .066.06.028.088l-.29.215.108.345c.015.045-.036.082-.074.055l-.295-.21-.294.21c-.038.027-.09-.01-.075-.055l.11-.345-.292-.215c-.038-.028-.018-.087.029-.088l.361-.003.115-.343c.015-.044.078-.044.092 0zM3.42 1.886l.115.344.362.002c.047 0 .066.06.028.088l-.29.215.108.345c.015.045-.036.082-.074.055l-.295-.21-.294.21c-.038.027-.09-.01-.075-.055l.11-.345-.292-.215c-.038-.028-.018-.087.029-.088l.361-.002.115-.344c.015-.044.078-.044.092 0zM3.42 3.682l.115.344.362.002c.047 0 .066.06.028.089l-.29.215.108.345c.015.044-.036.081-.074.054l-.295-.21-.294.21c-.038.027-.09-.01-.075-.054l.11-.345-.292-.215c-.038-.028-.018-.088.029-.089l.361-.002.115-.344c.015-.044.078-.044.092 0zM3.42 5.479l.115.343.362.003c.047 0 .066.06.028.088l-.29.215.108.345c.015.044-.036.081-.074.054l-.295-.21-.294.21c-.038.027-.09-.01-.075-.054l.11-.345-.292-.215c-.038-.028-.018-.088.029-.088l.361-.003.115-.343c.015-.045.078-.045.092 0zM3.42 7.275l.115.343.362.003c.047 0 .066.06.028.088l-.29.215.108.345c.015.045-.036.082-.074.054l-.295-.21-.294.21c-.038.028-.09-.01-.075-.054l.11-.345-.292-.215c-.038-.028-.018-.088.029-.088l.361-.003.115-.343c.015-.045.078-.045.092 0zM4.815.97l.114.344.362.003c.047 0 .066.06.029.088l-.292.215.11.345c.014.045-.037.082-.075.054l-.295-.21-.294.21c-.038.028-.089-.01-.075-.054l.11-.345-.292-.215c-.038-.028-.018-.088.029-.088l.362-.003.114-.343c.015-.045.078-.045.093 0zM4.815 2.767l.114.343.362.003c.047 0 .066.06.029.088l-.292.215.11.345c.014.045-.037.082-.075.055l-.295-.211-.294.21c-.038.028-.089-.01-.075-.054l.11-.345-.292-.215c-.038-.028-.018-.088.029-.088l.362-.003.114-.343c.015-.045.078-.045.093 0zM4.815 4.563l.114.343.362.003c.047 0 .066.06.029.088l-.292.215.11.345c.014.045-.037.082-.075.055l-.295-.21-.294.21c-.038.027-.089-.01-.075-.055l.11-.345-.292-.215c-.038-.028-.018-.087.029-.088l.362-.003.114-.343c.015-.044.078-.044.093 0zM4.815 6.36l.114.343.362.002c.047 0 .066.06.029.088l-.292.215.11.345c.014.045-.037.082-.075.055l-.295-.21-.294.21c-.038.027-.089-.01-.075-.055l.11-.345-.292-.215c-.038-.028-.018-.087.029-.088l.362-.002.114-.344c.015-.044.078-.044.093 0zM6.209.09l.114.343.362.003c.047 0 .066.06.029.088L6.423.74l.109.345c.014.045-.037.082-.075.055l-.295-.21-.294.21c-.038.027-.089-.01-.075-.055l.11-.345L5.61.524C5.573.496 5.593.437 5.64.436l.362-.003.114-.343c.015-.044.078-.044.093 0zM6.209 1.886l.114.344.362.002c.047 0 .066.06.029.088l-.291.215.109.345c.014.045-.037.082-.075.055l-.295-.21-.294.21c-.038.027-.089-.01-.075-.055l.11-.345-.292-.215c-.038-.028-.018-.087.029-.088l.362-.002.114-.344c.015-.044.078-.044.093 0zM6.209 3.682l.114.344.362.002c.047 0 .066.06.029.089l-.291.215.109.345c.014.044-.037.081-.075.054l-.295-.21-.294.21c-.038.027-.089-.01-.075-.054l.11-.345-.292-.215c-.038-.028-.018-.088.029-.089l.362-.002.114-.344c.015-.044.078-.044.093 0zM6.209 5.479l.114.343.362.003c.047 0 .066.06.029.088l-.291.215.109.345c.014.044-.037.081-.075.054l-.295-.21-.294.21c-.038.027-.089-.01-.075-.054l.11-.345-.292-.215c-.038-.028-.018-.088.029-.088l.362-.003.114-.343c.015-.045.078-.045.093 0zM6.209 7.275l.114.343.362.003c.047 0 .066.06.029.088l-.291.215.109.345c.014.045-.037.082-.075.054l-.295-.21-.294.21c-.038.028-.089-.01-.075-.054l.11-.345-.292-.215c-.038-.028-.018-.088.029-.088l.362-.003.114-.343c.015-.045.078-.045.093 0zM7.603.97l.114.344.362.003c.047 0 .067.06.029.088l-.291.215.109.345c.014.045-.037.082-.075.054l-.294-.21-.295.21c-.038.028-.089-.01-.075-.054l.11-.345-.292-.215c-.037-.028-.018-.088.029-.088l.362-.003.114-.343c.015-.045.078-.045.093 0zM7.603 2.767l.114.343.362.003c.047 0 .067.06.029.088l-.291.215.109.345c.014.045-.037.082-.075.055l-.294-.211-.295.21c-.038.028-.089-.01-.075-.054l.11-.345-.292-.215c-.037-.028-.018-.088.029-.088l.362-.003.114-.343c.015-.045.078-.045.093 0zM7.603 4.563l.114.343.362.003c.047 0 .067.06.029.088l-.291.215.109.345c.014.045-.037.082-.075.055l-.294-.21-.295.21c-.038.027-.089-.01-.075-.055l.11-.345-.292-.215c-.037-.028-.018-.087.029-.088l.362-.003.114-.343c.015-.044.078-.044.093 0zM7.603 6.36l.114.343.362.002c.047 0 .067.06.029.088l-.291.215.109.345c.014.045-.037.082-.075.055l-.294-.21-.295.21c-.038.027-.089-.01-.075-.055l.11-.345-.292-.215c-.037-.028-.018-.087.029-.088l.362-.002.114-.344c.015-.044.078-.044.093 0zM8.997.09l.115.343.361.003c.047 0 .067.06.029.088L9.211.74l.11.345c.013.045-.038.082-.076.055l-.294-.21-.295.21c-.038.027-.089-.01-.075-.055l.11-.345L8.4.524C8.362.496 8.38.437 8.428.436L8.79.433 8.905.09c.014-.044.077-.044.092 0zM8.997 1.886l.115.344.361.002c.047 0 .067.06.029.088l-.291.215.11.345c.013.045-.038.082-.076.055l-.294-.21-.295.21c-.038.027-.089-.01-.075-.055l.11-.345L8.4 2.32c-.038-.028-.019-.087.028-.088l.362-.002.115-.344c.014-.044.077-.044.092 0zM8.997 3.682l.115.344.361.002c.047 0 .067.06.029.089l-.291.215.11.345c.013.044-.038.081-.076.054l-.294-.21-.295.21c-.038.027-.089-.01-.075-.054l.11-.345-.291-.215c-.038-.028-.019-.088.028-.089l.362-.002.115-.344c.014-.044.077-.044.092 0zM8.997 5.479l.115.343.361.003c.047 0 .067.06.029.088l-.291.215.11.345c.013.044-.038.081-.076.054l-.294-.21-.295.21c-.038.027-.089-.01-.075-.054l.11-.345-.291-.215c-.038-.028-.019-.088.028-.088l.362-.003.115-.343c.014-.045.077-.045.092 0zM8.997 7.275l.115.343.361.003c.047 0 .067.06.029.088l-.291.215.11.345c.013.045-.038.082-.076.054l-.294-.21-.295.21c-.038.028-.089-.01-.075-.054l.11-.345-.291-.215c-.038-.028-.019-.088.028-.088l.362-.003.115-.343c.014-.045.077-.045.092 0zM10.391.97l.115.344.362.003c.046 0 .066.06.028.088l-.291.215.11.345c.013.045-.038.082-.076.054l-.294-.21-.295.21c-.038.028-.088-.01-.074-.054l.109-.345-.291-.215c-.038-.028-.019-.088.028-.088l.362-.003.115-.343c.014-.045.077-.045.092 0zM10.391 2.767l.115.343.362.003c.046 0 .066.06.028.088l-.291.215.11.345c.013.045-.038.082-.076.055l-.294-.211-.295.21c-.038.028-.088-.01-.074-.054l.109-.345-.291-.215c-.038-.028-.019-.088.028-.088l.362-.003.115-.343c.014-.045.077-.045.092 0zM10.391 4.563l.115.343.362.003c.046 0 .066.06.028.088l-.291.215.11.345c.013.045-.038.082-.076.055l-.294-.21-.295.21c-.038.027-.088-.01-.074-.055l.109-.345-.291-.215c-.038-.028-.019-.087.028-.088l.362-.003.115-.343c.014-.044.077-.044.092 0zM10.391 6.36l.115.343.362.002c.046 0 .066.06.028.088l-.291.215.11.345c.013.045-.038.082-.076.055l-.294-.21-.295.21c-.038.027-.088-.01-.074-.055l.109-.345-.291-.215c-.038-.028-.019-.087.028-.088l.362-.002.115-.344c.014-.044.077-.044.092 0zM11.785.09l.115.343.362.003c.047 0 .066.06.028.088L12 .74l.108.345c.015.045-.036.082-.074.055l-.295-.21-.294.21c-.038.027-.09-.01-.075-.055l.109-.345-.291-.215c-.038-.028-.018-.087.028-.088l.362-.003.115-.343c.015-.044.077-.044.092 0zM11.785 1.886l.115.344.362.002c.047 0 .066.06.028.088l-.29.215.108.345c.015.045-.036.082-.074.055l-.295-.21-.294.21c-.038.027-.09-.01-.075-.055l.109-.345-.291-.215c-.038-.028-.018-.087.028-.088l.362-.002.115-.344c.015-.044.077-.044.092 0zM11.785 3.682l.115.344.362.002c.047 0 .066.06.028.089l-.29.215.108.345c.015.044-.036.081-.074.054l-.295-.21-.294.21c-.038.027-.09-.01-.075-.054l.109-.345-.291-.215c-.038-.028-.018-.088.028-.089l.362-.002.115-.344c.015-.044.077-.044.092 0zM11.785 5.479l.115.343.362.003c.047 0 .066.06.028.088l-.29.215.108.345c.015.044-.036.081-.074.054l-.295-.21-.294.21c-.038.027-.09-.01-.075-.054l.109-.345-.291-.215c-.038-.028-.018-.088.028-.088l.362-.003.115-.343c.015-.045.077-.045.092 0zM11.785 7.275l.115.343.362.003c.047 0 .066.06.028.088l-.29.215.108.345c.015.045-.036.082-.074.054l-.295-.21-.294.21c-.038.028-.09-.01-.075-.054l.109-.345-.291-.215c-.038-.028-.018-.088.028-.088l.362-.003.115-.343c.015-.045.077-.045.092 0z" transform="translate(.82 1.113)"/>
        </g>
    </g>
</svg>
