<svg xmlns="http://www.w3.org/2000/svg" width="30" height="20" viewBox="0 0 30 20">
    <g fill="none">
        <path fill="#FAB446" d="M30 6.568H0V.533C0 .248.232.016.517.016h28.966c.285 0 .517.232.517.517v6.035z"/>
        <path fill="#73AF00" d="M29.483 19.671H.517c-.285 0-.517-.231-.517-.517V13.12h30v6.034c0 .286-.232.517-.517.517z"/>
        <path fill="#F5F5F5" d="M0 6.568H30V13.119H0z"/>
        <g fill="#41479B" transform="translate(12.188 7.031)">
            <path d="M2.813 5.593c-1.534 0-2.78-1.247-2.78-2.78 0-1.533 1.246-2.78 2.78-2.78 1.533 0 2.78 1.247 2.78 2.78 0 1.533-1.247 2.78-2.78 2.78zm0-5.043C1.565.55.55 1.565.55 2.813c0 1.247 1.015 2.263 2.263 2.263 1.247 0 2.262-1.016 2.262-2.263C5.075 1.565 4.06.55 2.812.55z"/>
            <circle cx="2.813" cy="2.813" r="1"/>
            <path d="M2.813 2.86L2.012 2.941.291 2.86.291 2.765 2.012 2.684 2.813 2.765zM2.813 2.86L3.613 2.941 5.334 2.86 5.334 2.765 3.613 2.684 2.813 2.765z"/>
            <path d="M2.765 2.813L2.684 2.012 2.765.291 2.86.291 2.941 2.012 2.86 2.813zM2.765 2.813L2.684 3.614 2.765 5.334 2.86 5.334 2.941 3.614 2.86 2.813z"/>
            <path d="M2.779 2.846L2.156 2.337 0.996 1.063 1.063 0.996 2.337 2.156 2.846 2.779z"/>
            <path d="M2.779 2.846L3.288 3.47 4.562 4.629 4.629 4.562 3.469 3.288 2.846 2.779z"/>
            <path d="M2.779 2.779L3.288 2.156 4.562 0.996 4.629 1.063 3.469 2.337 2.846 2.846z"/>
            <path d="M2.779 2.779L2.156 3.288 0.996 4.562 1.063 4.629 2.337 3.47 2.846 2.846z"/>
            <path d="M2.831 2.856L2.122 3.237 0.501 3.821 0.465 3.734 2.023 3.001 2.794 2.769z"/>
            <path d="M2.831 2.856L3.602 2.624 5.16 1.891 5.124 1.804 3.503 2.388 2.794 2.769z"/>
            <path d="M2.769 2.831L2.388 2.122 1.804 0.501 1.891 0.465 2.624 2.024 2.856 2.794z"/>
            <path d="M2.769 2.831L3.001 3.602 3.734 5.16 3.821 5.124 3.237 3.504 2.856 2.794z"/>
            <path d="M2.794 2.856L2.023 2.624 0.465 1.891 0.501 1.804 2.122 2.388 2.831 2.769z"/>
            <path d="M2.794 2.856L3.503 3.237 5.124 3.821 5.16 3.734 3.602 3.001 2.831 2.769z"/>
            <path d="M2.769 2.794L3.001 2.024 3.734 0.465 3.821 0.501 3.237 2.122 2.856 2.831z"/>
            <path d="M2.769 2.794L2.388 3.504 1.804 5.124 1.891 5.16 2.624 3.602 2.856 2.831z"/>
        </g>
        <circle cx="15" cy="9.844" r="1" fill="#F5F5F5"/>
        <circle cx="15" cy="9.844" r="1" fill="#41479B"/>
    </g>
</svg>
